<!--?xml version="1.0" standalone="no"?-->
              <svg id="sw-js-blob-svg" viewBox="0 0 100 100" xmlns="http://www.w3.org/2000/svg" version="1.1">
                    <defs> 
                        <linearGradient id="sw-gradient" x1="0" x2="1" y1="1" y2="0">
                            <stop id="stop1" stop-color="rgba(24, 34, 60, 1)" offset="0%"></stop>
                            <stop id="stop2" stop-color="rgba(192, 82, 106, 1)" offset="100%"></stop>
                        </linearGradient>
                    </defs>
                <path fill="url(#sw-gradient)" d="M23.7,-31.7C31,-27.2,37.6,-20.8,40.8,-12.8C43.9,-4.9,43.7,4.6,40.6,12.9C37.5,21.1,31.5,28.1,24.3,32.6C17,37,8.5,38.8,0.2,38.6C-8.2,38.3,-16.3,36,-21.9,31C-27.4,26.1,-30.3,18.4,-34.1,10.3C-37.8,2.1,-42.3,-6.5,-41.1,-14.3C-39.9,-22.1,-32.9,-28.9,-25.1,-33.3C-17.4,-37.6,-8.7,-39.5,-0.3,-39.1C8.1,-38.7,16.3,-36.2,23.7,-31.7Z" width="100%" height="100%" transform="translate(50 50)" stroke-width="0" style="transition: all 0.3s ease 0s;"></path>
              </svg>