<svg id="visual" viewBox="0 0 1000 352" width="1000" height="352" xmlns="http://www.w3.org/2000/svg" xmlns:xlink="http://www.w3.org/1999/xlink" version="1.1"><rect x="0" y="0" width="1000" height="352" fill="#001A2F"></rect><defs><linearGradient id="grad1_0" x1="64.8%" y1="0%" x2="100%" y2="100%"><stop offset="-6.81818181818182%" stop-color="#ff8b00" stop-opacity="1"></stop><stop offset="106.81818181818183%" stop-color="#ff8b00" stop-opacity="1"></stop></linearGradient></defs><defs><linearGradient id="grad1_1" x1="64.8%" y1="0%" x2="100%" y2="100%"><stop offset="-6.81818181818182%" stop-color="#ff8b00" stop-opacity="1"></stop><stop offset="106.81818181818183%" stop-color="#ef534b" stop-opacity="1"></stop></linearGradient></defs><defs><linearGradient id="grad1_2" x1="64.8%" y1="0%" x2="100%" y2="100%"><stop offset="-6.81818181818182%" stop-color="#bd366a" stop-opacity="1"></stop><stop offset="106.81818181818183%" stop-color="#ef534b" stop-opacity="1"></stop></linearGradient></defs><defs><linearGradient id="grad1_3" x1="64.8%" y1="0%" x2="100%" y2="100%"><stop offset="-6.81818181818182%" stop-color="#bd366a" stop-opacity="1"></stop><stop offset="106.81818181818183%" stop-color="#763370" stop-opacity="1"></stop></linearGradient></defs><defs><linearGradient id="grad1_4" x1="64.8%" y1="0%" x2="100%" y2="100%"><stop offset="-6.81818181818182%" stop-color="#302c59" stop-opacity="1"></stop><stop offset="106.81818181818183%" stop-color="#763370" stop-opacity="1"></stop></linearGradient></defs><defs><linearGradient id="grad1_5" x1="64.8%" y1="0%" x2="100%" y2="100%"><stop offset="-6.81818181818182%" stop-color="#302c59" stop-opacity="1"></stop><stop offset="106.81818181818183%" stop-color="#001a2f" stop-opacity="1"></stop></linearGradient></defs><defs><linearGradient id="grad2_0" x1="0%" y1="0%" x2="35.2%" y2="100%"><stop offset="-6.81818181818182%" stop-color="#ff8b00" stop-opacity="1"></stop><stop offset="106.81818181818183%" stop-color="#ff8b00" stop-opacity="1"></stop></linearGradient></defs><defs><linearGradient id="grad2_1" x1="0%" y1="0%" x2="35.2%" y2="100%"><stop offset="-6.81818181818182%" stop-color="#ef534b" stop-opacity="1"></stop><stop offset="106.81818181818183%" stop-color="#ff8b00" stop-opacity="1"></stop></linearGradient></defs><defs><linearGradient id="grad2_2" x1="0%" y1="0%" x2="35.2%" y2="100%"><stop offset="-6.81818181818182%" stop-color="#ef534b" stop-opacity="1"></stop><stop offset="106.81818181818183%" stop-color="#bd366a" stop-opacity="1"></stop></linearGradient></defs><defs><linearGradient id="grad2_3" x1="0%" y1="0%" x2="35.2%" y2="100%"><stop offset="-6.81818181818182%" stop-color="#763370" stop-opacity="1"></stop><stop offset="106.81818181818183%" stop-color="#bd366a" stop-opacity="1"></stop></linearGradient></defs><defs><linearGradient id="grad2_4" x1="0%" y1="0%" x2="35.2%" y2="100%"><stop offset="-6.81818181818182%" stop-color="#763370" stop-opacity="1"></stop><stop offset="106.81818181818183%" stop-color="#302c59" stop-opacity="1"></stop></linearGradient></defs><defs><linearGradient id="grad2_5" x1="0%" y1="0%" x2="35.2%" y2="100%"><stop offset="-6.81818181818182%" stop-color="#001a2f" stop-opacity="1"></stop><stop offset="106.81818181818183%" stop-color="#302c59" stop-opacity="1"></stop></linearGradient></defs><g transform="translate(1000, 0)"><path d="M0 352C-39.5 353.2 -78.9 354.5 -108.8 334.8C-138.6 315.1 -158.9 274.4 -176.3 242.7C-193.8 211 -208.4 188.4 -229.8 166.9C-251.1 145.5 -279.1 125.3 -300.5 97.6C-322 70 -337 35 -352 0L0 0Z" fill="#122445"></path><path d="M0 293.3C-32.9 294.4 -65.8 295.4 -90.6 279C-115.5 262.5 -132.4 228.6 -146.9 202.3C-161.5 175.9 -173.7 157 -191.5 139.1C-209.2 121.2 -232.5 104.4 -250.4 81.4C-268.3 58.4 -280.8 29.2 -293.3 0L0 0Z" fill="#523168"></path><path d="M0 234.7C-26.3 235.5 -52.6 236.3 -72.5 223.2C-92.4 210 -105.9 182.9 -117.6 161.8C-129.2 140.7 -139 125.6 -153.2 111.3C-167.4 97 -186 83.5 -200.4 65.1C-214.7 46.7 -224.7 23.3 -234.7 0L0 0Z" fill="#9b3471"></path><path d="M0 176C-19.7 176.6 -39.5 177.2 -54.4 167.4C-69.3 157.5 -79.4 137.2 -88.2 121.4C-96.9 105.5 -104.2 94.2 -114.9 83.5C-125.5 72.7 -139.5 62.6 -150.3 48.8C-161 35 -168.5 17.5 -176 0L0 0Z" fill="#da405d"></path><path d="M0 117.3C-13.2 117.7 -26.3 118.2 -36.3 111.6C-46.2 105 -53 91.5 -58.8 80.9C-64.6 70.3 -69.5 62.8 -76.6 55.6C-83.7 48.5 -93 41.8 -100.2 32.5C-107.3 23.3 -112.3 11.7 -117.3 0L0 0Z" fill="#fc6d32"></path><path d="M0 58.7C-6.6 58.9 -13.2 59.1 -18.1 55.8C-23.1 52.5 -26.5 45.7 -29.4 40.5C-32.3 35.2 -34.7 31.4 -38.3 27.8C-41.8 24.2 -46.5 20.9 -50.1 16.3C-53.7 11.7 -56.2 5.8 -58.7 0L0 0Z" fill="#ff8b00"></path></g><g transform="translate(0, 352)"><path d="M0 -352C35.1 -334.7 70.2 -317.5 96.1 -295.8C122 -274.1 138.6 -247.9 171 -235.4C203.5 -223 251.7 -224.3 282.3 -205.1C313 -186 326.1 -146.4 334.8 -108.8C343.5 -71.2 347.7 -35.6 352 0L0 0Z" fill="#122445"></path><path d="M0 -293.3C29.3 -279 58.5 -264.6 80.1 -246.5C101.7 -228.4 115.5 -206.6 142.5 -196.2C169.6 -185.8 209.7 -186.9 235.3 -170.9C260.8 -155 271.7 -122 279 -90.6C286.2 -59.3 289.8 -29.7 293.3 0L0 0Z" fill="#523168"></path><path d="M0 -234.7C23.4 -223.2 46.8 -211.7 64.1 -197.2C81.3 -182.7 92.4 -165.2 114 -156.9C135.6 -148.7 167.8 -149.5 188.2 -136.8C208.7 -124 217.4 -97.6 223.2 -72.5C229 -47.4 231.8 -23.7 234.7 0L0 0Z" fill="#9b3471"></path><path d="M0 -176C17.6 -167.4 35.1 -158.7 48.1 -147.9C61 -137 69.3 -123.9 85.5 -117.7C101.7 -111.5 125.8 -112.1 141.2 -102.6C156.5 -93 163 -73.2 167.4 -54.4C171.7 -35.6 173.9 -17.8 176 0L0 0Z" fill="#da405d"></path><path d="M0 -117.3C11.7 -111.6 23.4 -105.8 32 -98.6C40.7 -91.4 46.2 -82.6 57 -78.5C67.8 -74.3 83.9 -74.8 94.1 -68.4C104.3 -62 108.7 -48.8 111.6 -36.3C114.5 -23.7 115.9 -11.9 117.3 0L0 0Z" fill="#fc6d32"></path><path d="M0 -58.7C5.9 -55.8 11.7 -52.9 16 -49.3C20.3 -45.7 23.1 -41.3 28.5 -39.2C33.9 -37.2 41.9 -37.4 47.1 -34.2C52.2 -31 54.3 -24.4 55.8 -18.1C57.2 -11.9 58 -5.9 58.7 0L0 0Z" fill="#ff8b00"></path></g></svg>