<svg width="130" height="131" viewBox="0 0 130 131" fill="none" xmlns="http://www.w3.org/2000/svg">
<path d="M64.695 88.6476C54.0218 88.6476 52.8825 84.1941 51.4319 80.8619C50.137 77.8877 49.3907 70.3599 49.2483 68.786C49.2324 68.6201 49.0953 68.4938 48.9291 68.4938C48.7498 68.4938 48.6047 68.6412 48.6074 68.8202L48.7973 78.9247C48.8025 79.1932 48.792 79.4564 48.7735 79.717C48.6971 84.6495 45.0681 88.645 40.5768 88.645C35.6002 88.645 31.4121 86.0497 31.4121 79.5564C31.4121 70.7126 35.9509 67.1725 43.5543 67.1725L46.0677 67.1672C47.0118 67.1646 48.8342 67.1699 50.9731 67.5384C53.9453 68.0516 56.4006 69.0834 58.4446 68.8018C59.547 68.6491 60.0006 66.8382 58.2204 66.2434C56.369 65.6248 53.1251 66.2434 44.3877 66.2434C35.6503 66.2434 32.6965 61.4451 32.6965 54.3227C32.6965 47.2003 36.9795 42.8942 44.4747 42.8574C51.97 42.8205 54.5783 45.3421 56.6143 49.3534C58.4446 52.9593 59.2463 61.0108 59.3887 62.6032C59.4019 62.7585 59.5364 62.877 59.692 62.8717C59.8529 62.8664 59.9795 62.7322 59.9768 62.5716L59.7949 51.7696C59.7078 46.8739 63.408 42.8574 68.0022 42.8574C72.9788 42.8574 77.1642 45.3552 77.1642 51.6038C77.1642 59.3552 71.85 64.2114 64.2466 64.2114L62.5086 64.2167C60.9975 64.2193 58.3734 63.6166 56.9255 63.1033C54.0561 62.09 51.6218 61.7978 49.963 62.4269C48.3806 63.027 48.3331 65.1616 50.7067 65.1616C52.9616 65.1616 58.1334 65.1063 63.3658 65.1063C68.5982 65.1063 70.4443 66.4171 72.6755 68.0253C75.0016 69.7019 77.1642 73.3816 77.1642 77.7245C77.1642 82.07 75.3682 88.6476 64.695 88.6476ZM82.9162 62.0321C87.3811 65.5011 94.1907 65.0563 96.9941 60.3554C99.7897 55.6651 97.6535 48.6638 93.1885 45.1947C88.7341 41.7335 82.2357 42.0257 79.4402 46.716C76.6367 51.4169 78.4591 58.5709 82.9162 62.0321ZM90.5011 65.1142C87.1042 65.1142 78.1822 67.4962 78.1822 78.3404V80.454C78.1822 87.1342 80.8696 88.645 86.5372 88.645H90.2347C95.9023 88.645 98.5897 87.1342 98.5897 80.454V73.3052C98.5897 66.625 94.3463 65.1142 90.5011 65.1142Z" fill="#E5504B"/>
<path d="M14.6624 64.3906C14.3723 65.3144 14.0427 66.0803 13.6761 66.6883L9.69902 66.2698C10.2977 65.7303 10.775 65.0486 11.1416 64.2247C11.5056 63.3983 11.7245 62.5928 11.7878 61.7953C11.8352 61.1926 11.764 60.6714 11.561 60.2556C11.3579 59.8371 11.0546 59.6081 10.6353 59.5738C9.52759 59.487 8.94211 61.1373 8.05069 62.7639C7.6551 63.5878 7.05643 64.3721 6.41029 64.9591C5.76414 65.546 4.80944 65.9014 3.73342 65.8171C2.45168 65.7145 1.47851 65.1328 0.819186 64.0826C0.170407 63.0324 -0.095961 61.7164 0.03063 60.1503C0.0912882 59.4028 0.231065 58.6632 0.4526 57.9499C0.684683 57.2366 0.937865 56.6417 1.21215 56.1679L5.09427 56.4759C4.65911 56.9049 4.29516 57.4419 4.00506 58.1078C3.71496 58.7737 3.54617 59.4607 3.49078 60.1661C3.44331 60.7688 3.51452 61.2794 3.72023 61.6979C3.9233 62.1164 4.21604 62.3349 4.60637 62.3665C5.7325 62.4665 6.32062 60.7846 7.19357 59.1448C7.59971 58.3236 8.19839 57.5156 8.84453 56.9207C9.49067 56.3232 10.4665 55.9784 11.561 56.0679C13.2937 56.2048 14.4884 57.3603 14.9525 59.0343C15.1952 59.866 15.2637 60.8083 15.182 61.8401C15.124 62.6165 14.9525 63.4667 14.6624 64.3906Z" fill="white"/>
<path d="M17.73 48.4349C17.1893 49.2798 16.7911 50.0563 16.5485 50.7538C16.2109 51.7329 16.1186 52.7226 16.2821 53.7359C15.7151 53.3885 14.945 53.0042 13.9639 52.5699C12.9934 52.1382 12.0439 51.7697 11.1393 51.4565L7.27832 50.13C5.24495 49.4325 3.5096 49.0087 2.07227 48.8508L3.51224 44.6763C4.74123 45.4343 6.36053 46.1661 8.35434 46.8504L14.0536 48.8087L14.9951 46.0818C15.3907 44.9369 15.5015 43.9867 15.3195 43.2181L18.9722 44.5158C18.9695 44.5263 19.0091 44.8527 19.0275 45.1422C19.0381 45.4291 18.9748 45.9265 18.8403 46.3161C18.6425 46.8925 18.2706 47.59 17.73 48.4349Z" fill="white"/>
<path d="M20.6625 42.0046C19.6155 41.0123 18.1703 39.9647 16.3321 38.8751L12.8244 36.7931C10.9783 35.6982 9.36427 34.9322 7.99023 34.4874L10.2478 30.6946C11.2948 31.6869 12.74 32.7344 14.5862 33.8294L18.0938 35.9114C19.932 37.001 21.5434 37.767 22.9174 38.2118L20.6625 42.0046Z" fill="white"/>
<path d="M24.6106 33.1531C22.9121 33.2241 20.8841 32.3924 19.0168 30.6789C16.7171 28.568 15.8943 26.2781 16.1448 24.2935C16.2925 22.938 16.8753 21.7746 17.7878 20.7849C18.7557 19.7347 19.6946 19.0504 20.6124 18.7372L23.4792 21.3982C22.5798 21.464 21.5249 22.0036 20.8023 22.7879C20.1008 23.5512 19.7764 24.383 19.837 25.2884C19.903 26.1991 20.4436 27.1151 21.4669 28.0521C22.4717 28.976 23.4449 29.4208 24.36 29.3839C25.2831 29.3523 26.0875 28.9628 26.7916 28.2021C27.7041 27.2125 28.1657 26.1202 28.1815 24.9357L31.1379 27.652C30.6606 28.9128 29.93 30.0841 28.941 31.1553C27.8017 32.3871 26.309 33.082 24.6106 33.1531Z" fill="white"/>
<path d="M33.8229 26.1095C33.6014 25.4831 33.2611 24.7251 32.8049 23.846C32.3486 22.9668 31.866 22.143 31.3649 21.3639L29.1575 17.937C28.6564 17.1605 28.1052 16.3788 27.4881 15.5918C26.8762 14.8127 26.3276 14.1889 25.8477 13.7283L33.3904 8.88788L35.938 11.8542C35.4475 11.8147 34.6167 12.178 33.4326 12.936L31.0353 14.4731L32.4937 16.7341L34.3715 15.5286C35.1336 15.039 35.7376 14.6153 36.1938 14.2363L37.4123 16.1261C36.8795 16.3814 36.2413 16.7552 35.4791 17.2447L33.6014 18.4502L35.2971 21.0823L37.5283 19.6504C38.3406 19.1293 38.9182 18.6976 39.2769 18.3581C39.6329 18.0185 39.8808 17.7027 40.0206 17.4053L41.6531 21.0797L33.8229 26.1095Z" fill="white"/>
<path d="M58.743 16.3132C57.9149 16.4132 57.129 16.3448 56.3852 16.0947C55.6389 15.8447 54.969 15.4393 54.373 14.8813C53.1677 13.7574 52.3 11.836 52.0047 9.4224C51.7066 6.98773 52.0838 4.91365 52.9831 3.54234C53.8824 2.17103 55.2195 1.32613 56.8837 1.12346C58.5478 0.920792 60.0485 1.42089 61.2616 2.53162C62.4642 3.64499 63.3319 5.56641 63.6299 8.00107C63.9253 10.4147 63.5482 12.4888 62.6489 13.8706C62.2031 14.5549 61.6493 15.1103 60.9874 15.5314C60.3254 15.9526 59.5711 16.2105 58.743 16.3132ZM60.0274 8.44063C59.6502 5.35321 58.5505 3.83187 57.2345 3.99242C55.8973 4.15561 55.2169 5.88225 55.5967 8.98021C55.9712 12.0466 57.0498 13.5705 58.387 13.4074C59.7056 13.2468 60.4019 11.507 60.0274 8.44063Z" fill="white"/>
<path d="M67.332 15.4944C67.8437 14.1468 68.2525 12.4096 68.5478 10.296L69.1122 6.26107C69.4102 4.13699 69.492 2.35507 69.3707 0.920593L78.3428 2.17083V6.09788C77.9683 5.73466 77.0927 5.45829 75.7187 5.26615L72.7965 4.85818L72.3798 7.83505L74.2945 8.10089C75.3547 8.24829 76.1011 8.32199 76.5494 8.31146L76.2303 10.5987C75.6607 10.4461 74.9011 10.3092 73.9438 10.1776L72.0897 9.91966L71.95 10.9146C71.6599 12.9887 71.5834 14.7179 71.7337 16.1077L67.332 15.4944Z" fill="white"/>
<path d="M87.5947 21.0139C88.5653 19.9479 89.5859 18.4845 90.6408 16.6262L92.6531 13.0808C93.7133 11.2147 94.4465 9.58807 94.8632 8.20886L98.711 10.383C97.7378 11.4489 96.7198 12.915 95.6596 14.7785L93.6474 18.3239C92.5924 20.1822 91.8593 21.8062 91.4426 23.188L87.5947 21.0139Z" fill="white"/>
<path d="M96.7012 26.9728C97.8801 26.1385 99.1908 24.9277 100.62 23.3406L104.592 18.9292L103.727 18.1528C103.023 17.5211 102.332 17.1236 101.638 16.9552L104.719 14.3784L111.626 20.5716L109.389 23.9038C109.173 23.2537 108.701 22.6115 107.973 21.9587L107.163 21.2323L103.192 25.6436C101.762 27.2308 100.697 28.6626 99.9925 29.9208L96.7012 26.9728Z" fill="white"/>
<path d="M102.804 32.3476C103.495 32.216 104.344 32.0055 105.336 31.7107C106.325 31.4159 107.263 31.0974 108.15 30.7605L112.161 29.4155C113.018 29.0891 113.894 28.697 114.79 28.2442C115.671 27.7889 116.396 27.3757 116.961 26.9993L120.402 32.1055C119.843 32.4687 119.195 32.9793 118.435 33.6347C117.67 34.2849 116.963 34.9429 116.33 35.6035L113.574 38.812C112.095 40.386 110.94 41.8284 110.085 43.1549L107.619 39.4964C108.44 38.9699 109.373 38.183 110.415 37.138L110.789 36.7379L109.028 34.1243L108.498 34.2954C107.129 34.8929 106.056 35.4667 105.272 36.0141L102.804 32.3476ZM110.858 33.3821L112.171 35.3298L113.569 33.6374C113.936 33.2426 114.622 32.6082 115.624 31.7265L115.502 31.5475C115.225 31.6712 114.511 32.0397 114.239 32.1739C113.92 32.3266 113.4 32.5635 112.952 32.7293L110.858 33.3821Z" fill="white"/>
<path d="M112.763 50.6563C112.679 49.6561 112.523 48.8007 112.288 48.1005C111.961 47.1161 111.431 46.2765 110.688 45.5737C111.347 45.5053 112.191 45.3447 113.235 45.0947C114.269 44.8473 115.247 44.5657 116.155 44.263L120.026 42.9759C122.065 42.2968 123.697 41.5809 124.934 40.836L126.332 45.021C124.895 45.1631 123.165 45.5658 121.168 46.2318L115.453 48.1321L116.366 50.8668C116.748 52.0144 117.239 52.8356 117.85 53.3357L114.161 54.5202C114.158 54.5096 113.929 54.2727 113.736 54.0569C113.554 53.8358 113.301 53.4015 113.172 53.012C112.977 52.4356 112.847 51.6565 112.763 50.6563Z" fill="white"/>
<path d="M114.556 58.9368C115.895 59.1263 117.251 59.1605 118.622 59.0394L119.738 58.9394L123.797 56.6205C125.925 55.4729 127.605 54.4043 128.85 53.4199L129.253 57.9287C128.175 58.2208 126.906 58.7051 125.448 59.3605L124.15 60.1975L124.169 60.4028L125.617 61.0161C127.18 61.4241 128.504 61.6662 129.596 61.7636L130 66.2618C129.348 65.917 128.52 65.538 127.502 65.1353C126.484 64.7221 125.469 64.3483 124.459 64.014L120.052 62.4374L118.936 62.5374C117.502 62.6638 116.172 62.927 114.949 63.335L114.556 58.9368Z" fill="white"/>
<path d="M7.74749 94.3251C8.29342 93.6276 9.10571 92.988 9.88635 92.4037C11.0336 91.5377 12.0068 90.6613 11.4476 89.4742C11.3131 89.1873 11.1865 88.9952 11.0784 88.9083L9.92591 89.4505C7.96375 90.3717 6.48422 91.2114 5.5005 91.9668L3.69922 88.1424C5.03634 87.7765 6.71894 87.1237 8.72857 86.1815L12.31 84.5022C14.5702 83.4415 16.1473 82.5676 17.0414 81.8859L19.5099 87.1316C20.1534 88.4977 20.3749 89.719 20.1877 90.8139C19.9899 91.9141 19.3464 92.7169 18.2387 93.2354C17.168 93.7355 16.1843 93.7434 15.2823 93.2723C14.3751 92.7906 13.6366 91.9484 13.0643 90.7297L13.0221 90.6376L12.8823 90.7034L12.943 90.8323C14.1061 93.3039 10.6617 94.0672 11.3026 95.4332C11.6296 96.1281 12.2705 96.4755 13.2094 96.465L9.30087 98.3443C8.63099 98.2969 7.89255 97.7916 7.53915 97.0388C7.04333 95.9938 7.20157 95.0252 7.74749 94.3251ZM12.7083 88.1476L13.3333 89.4768C13.845 90.5639 14.6836 90.9955 15.699 90.5218C16.6194 90.0901 16.804 89.1531 16.3267 88.1424L15.6753 86.7579L12.7083 88.1476Z" fill="white"/>
<path d="M11.6035 103.014C12.2022 102.721 12.9169 102.298 13.7371 101.745C14.5599 101.192 15.3248 100.618 16.0395 100.034L19.1963 97.452C19.911 96.8677 20.6258 96.2308 21.3378 95.528C22.042 94.8331 22.6011 94.2172 23.002 93.6882L28.6854 100.608L26.027 103.474C26.0085 102.985 25.5549 102.203 24.6608 101.116L22.8543 98.9181L20.7708 100.624L22.1844 102.345C22.7593 103.045 23.2525 103.595 23.6798 104.003L21.9391 105.427C21.6227 104.93 21.177 104.34 20.6047 103.643L19.1911 101.921L16.7674 103.906L18.45 105.954C19.0618 106.699 19.5576 107.222 19.9374 107.538C20.3146 107.851 20.66 108.062 20.9712 108.165L17.5032 110.207L11.6035 103.014Z" fill="white"/>
<path d="M23.4399 115.532C22.8175 114.79 22.348 114.1 22.0342 113.46L24.537 110.344C24.6689 111.139 24.9853 111.907 25.4838 112.66C25.9822 113.413 26.544 114.032 27.1848 114.516C27.6675 114.882 28.1448 115.103 28.609 115.158C29.0705 115.213 29.4292 115.084 29.6824 114.747C30.3549 113.866 29.2762 112.481 28.3875 110.852C27.9075 110.076 27.5673 109.146 27.4196 108.288C27.2719 107.43 27.4881 106.433 28.1422 105.575C28.9202 104.553 29.9356 104.048 31.1777 104.064C32.4146 104.085 33.67 104.572 34.9227 105.525C35.5214 105.977 36.0673 106.496 36.5499 107.07C37.0247 107.649 37.3939 108.186 37.6418 108.67L35.284 111.768C35.1574 111.171 34.9016 110.576 34.4955 109.973C34.0893 109.368 33.6014 108.857 33.037 108.428C32.5544 108.062 32.085 107.849 31.6208 107.794C31.1593 107.741 30.8164 107.867 30.5791 108.178C29.8855 109.07 30.9879 110.473 31.9004 112.092C32.3751 112.876 32.7311 113.818 32.8867 114.682C33.0423 115.548 32.805 116.553 32.1404 117.427C31.0881 118.809 29.4688 119.19 27.8046 118.677C26.9712 118.432 26.1378 117.982 25.3124 117.353C24.6873 116.877 24.0623 116.274 23.4399 115.532Z" fill="white"/>
<path d="M36.3076 123.883C37.1753 122.73 38.0562 121.18 38.9344 119.23L41.3739 113.818L40.3137 113.342C39.4513 112.955 38.6707 112.784 37.9586 112.836L40.108 109.444L48.5817 113.247L47.4661 117.103C47.0599 116.55 46.4138 116.079 45.525 115.679L44.5308 115.234L42.0912 120.646C41.213 122.594 40.6328 124.281 40.348 125.694L36.3076 123.883Z" fill="white"/>
<path d="M45.873 127.96C46.2686 127.379 46.7223 126.631 47.2128 125.723C47.706 124.815 48.1411 123.928 48.5315 123.062L50.4171 119.28C50.7916 118.443 51.1345 117.548 51.4483 116.595C51.749 115.65 51.9705 114.847 52.0997 114.181L58.155 115.366C58.0152 116.019 57.9176 116.837 57.8464 117.837C57.7647 118.835 57.733 119.801 57.7515 120.717L58.0759 124.931C58.1445 127.089 58.3475 128.926 58.6851 130.466L54.3467 129.616C54.5551 128.663 54.6579 127.45 54.6553 125.973L54.6368 125.426L51.538 124.82L51.2874 125.318C50.7415 126.708 50.3881 127.871 50.222 128.813L45.873 127.96ZM52.3055 123.007L54.6157 123.46L54.4048 121.275C54.3837 120.738 54.4206 119.804 54.505 118.472L54.294 118.43C54.1859 118.711 53.9406 119.48 53.843 119.764C53.7243 120.096 53.5265 120.633 53.3261 121.064L52.3055 123.007Z" fill="white"/>
<path d="M64.8543 129.498C63.8389 128.695 63.2007 127.295 63.0899 125.452L62.842 121.264C62.7866 120.312 62.6864 119.351 62.5361 118.374C62.3857 117.408 62.2143 116.606 62.0244 115.979L66.4366 115.719C66.2151 117.182 66.165 118.961 66.2916 121.062L66.5052 124.686C66.6028 126.334 67.3333 127.205 68.565 127.134C69.786 127.063 70.4295 126.1 70.3319 124.462L70.1157 120.838C69.9891 118.698 69.7201 116.937 69.3192 115.553L73.7314 115.292C73.4967 116.714 73.4387 118.496 73.5653 120.635L73.8132 124.823C73.9187 126.594 73.5257 127.963 72.637 128.953C71.7376 129.94 70.4401 130.479 68.7496 130.579C67.1777 130.666 65.8696 130.311 64.8543 129.498Z" fill="white"/>
<path d="M86.9172 125.539C86.2869 124.918 85.741 124.039 85.253 123.196C84.5225 121.957 83.763 120.891 82.5155 121.309C82.2122 121.409 82.0092 121.512 81.9116 121.609L82.3177 122.815C83.0061 124.868 83.6733 126.431 84.3115 127.495L80.2949 128.837C80.0839 127.468 79.6303 125.726 78.9235 123.625L77.6655 119.88C76.8717 117.516 76.1833 115.853 75.6084 114.887L81.1151 113.044C82.5472 112.565 83.7893 112.486 84.8601 112.797C85.9335 113.121 86.6561 113.853 87.0438 115.008C87.4183 116.127 87.3128 117.103 86.7405 117.945C86.1576 118.79 85.2319 119.425 83.9555 119.851L83.8579 119.883L83.908 120.027L84.0452 119.983C86.6376 119.114 87.0016 122.617 88.4336 122.138C89.1642 121.894 89.5835 121.299 89.6811 120.367L91.1 124.46C90.9734 125.118 90.3879 125.792 89.5967 126.055C88.4943 126.429 87.5475 126.16 86.9172 125.539ZM81.3366 119.906L82.7318 119.44C83.8711 119.059 84.4012 118.274 84.0452 117.216C83.7208 116.253 82.8109 115.963 81.7481 116.319L80.2949 116.803L81.3366 119.906Z" fill="white"/>
<path d="M95.6156 123.094C95.4837 122.401 95.2727 121.554 94.9773 120.567C94.682 119.577 94.3628 118.643 94.0253 117.753L92.6776 113.747C92.3479 112.892 91.9576 112.018 91.504 111.12C91.0477 110.241 90.6337 109.517 90.2539 108.954L95.3729 105.517C95.7369 106.075 96.2485 106.722 96.9078 107.48C97.5593 108.243 98.2186 108.949 98.8806 109.583L102.098 112.334C103.675 113.81 105.123 114.966 106.455 115.816L102.784 118.28C102.256 117.458 101.468 116.529 100.421 115.487L100.02 115.113L97.401 116.871L97.5698 117.4C98.1685 118.767 98.7434 119.84 99.2946 120.622L95.6156 123.094ZM96.652 115.05L98.6063 113.739L96.9105 112.342C96.5149 111.976 95.8793 111.289 94.9932 110.289L94.8138 110.407C94.9378 110.683 95.3096 111.399 95.4415 111.668C95.5945 111.986 95.8318 112.507 95.998 112.952L96.652 115.05Z" fill="white"/>
<path d="M110.233 112.379C109.408 111.226 108.165 109.944 106.52 108.533L103.421 105.88C102.696 105.259 101.936 104.661 101.126 104.09C100.325 103.524 99.6285 103.09 99.043 102.793L101.57 99.8841L110.141 101.992L110.275 101.837L107.941 99.8367C106.359 98.5233 105.043 97.5968 103.98 97.052L106.86 93.704C107.722 94.8621 108.965 96.1439 110.594 97.5389L117.734 103.656L115.637 106.093L106.802 103.945L106.662 104.109L108.638 105.801C109.355 106.414 110.154 107.033 111.016 107.651C111.881 108.27 112.586 108.725 113.126 109.012L110.233 112.379Z" fill="white"/>
<path d="M122.086 96.3783C120.967 95.4676 119.448 94.5305 117.531 93.5777L112.212 90.9351L111.695 91.9748C111.273 92.8197 111.072 93.5909 111.096 94.3016L107.786 92.0274L111.924 83.7311L115.738 84.9945C115.168 85.3762 114.672 86.0026 114.237 86.8738L113.752 87.8477L119.071 90.4903C120.986 91.4405 122.65 92.0854 124.053 92.4275L122.086 96.3783Z" fill="white"/>
</svg>
