<svg width="87" height="86" viewBox="0 0 87 86" fill="none" xmlns="http://www.w3.org/2000/svg">
<path d="M42.9067 58.1818C35.8281 58.1818 35.0724 55.2282 34.1104 53.0183C33.2516 51.0457 32.7566 46.0532 32.6622 45.0093C32.6517 44.8993 32.5607 44.8156 32.4505 44.8156C32.3316 44.8156 32.2354 44.9133 32.2372 45.032L32.3631 51.7335C32.3666 51.9115 32.3596 52.0861 32.3473 52.2589C32.2966 55.5302 29.8899 58.1801 26.9111 58.1801C23.6106 58.1801 20.833 56.4589 20.833 52.1524C20.833 46.2871 23.8432 43.9392 28.8859 43.9392L30.5528 43.9358C31.1789 43.934 32.3876 43.9375 33.8061 44.1819C35.7773 44.5223 37.4058 45.2066 38.7613 45.0198C39.4924 44.9185 39.7933 43.7175 38.6126 43.323C37.3848 42.9128 35.2334 43.323 29.4386 43.323C23.6438 43.323 21.6848 40.1408 21.6848 35.4171C21.6848 30.6934 24.5254 27.8376 29.4963 27.8131C34.4673 27.7887 36.1971 29.461 37.5474 32.1213C38.7613 34.5129 39.293 39.8527 39.3875 40.9088C39.3962 41.0118 39.4854 41.0904 39.5886 41.0869C39.6953 41.0834 39.7793 40.9944 39.7775 40.8879L39.6568 33.7238C39.5991 30.477 42.0531 27.8131 45.1 27.8131C48.4006 27.8131 51.1764 29.4697 51.1764 33.6139C51.1764 38.7547 47.652 41.9754 42.6093 41.9754L41.4567 41.9789C40.4544 41.9807 38.7141 41.5809 37.7538 41.2405C35.8508 40.5684 34.2364 40.3747 33.1362 40.7919C32.0867 41.1899 32.0552 42.6056 33.6294 42.6056C35.1249 42.6056 38.5549 42.5689 42.0251 42.5689C45.4953 42.5689 46.7197 43.4383 48.1995 44.5048C49.7422 45.6168 51.1764 48.0572 51.1764 50.9375C51.1764 53.8195 49.9853 58.1818 42.9067 58.1818ZM54.9912 40.53C57.9524 42.8308 62.4686 42.5358 64.3279 39.4181C66.182 36.3074 64.7652 31.664 61.804 29.3632C58.8497 27.0677 54.54 27.2615 52.6859 30.3722C50.8266 33.4899 52.0352 38.2345 54.9912 40.53ZM60.0216 42.5742C57.7688 42.5742 51.8516 44.154 51.8516 51.3459V52.7477C51.8516 57.1781 53.6339 58.1801 57.3927 58.1801H59.845C63.6038 58.1801 65.3861 57.1781 65.3861 52.7477V48.0066C65.3861 43.5762 62.5718 42.5742 60.0216 42.5742Z" fill="#E5504B"/>
<path d="M9.72433 42.094C9.53193 42.7068 9.31329 43.2147 9.07017 43.618L6.43252 43.3404C6.82957 42.9826 7.14616 42.5305 7.38928 41.9841C7.63066 41.4359 7.77583 40.9018 7.81781 40.3729C7.84929 39.9731 7.80207 39.6275 7.66739 39.3517C7.53271 39.0741 7.33156 38.9222 7.05345 38.8995C6.31883 38.8419 5.93053 39.9365 5.33933 41.0153C5.07697 41.5616 4.67992 42.0818 4.25139 42.4711C3.82286 42.8604 3.18969 43.096 2.47605 43.0402C1.62599 42.9721 0.980571 42.5863 0.543295 41.8898C0.113016 41.1933 -0.0636426 40.3205 0.0203142 39.2818C0.0605436 38.7861 0.153246 38.2956 0.30017 37.8225C0.454091 37.3494 0.622005 36.9549 0.803912 36.6407L3.37859 36.8449C3.08999 37.1295 2.84861 37.4856 2.65621 37.9272C2.46381 38.3689 2.35187 38.8245 2.31514 39.2923C2.28365 39.6921 2.33088 40.0307 2.46731 40.3083C2.60199 40.5858 2.79614 40.7307 3.05501 40.7517C3.80187 40.818 4.19192 39.7025 4.77087 38.615C5.04024 38.0704 5.43728 37.5345 5.86581 37.14C6.29434 36.7437 6.94151 36.515 7.66739 36.5744C8.81655 36.6651 9.60889 37.4315 9.91673 38.5417C10.0777 39.0933 10.1231 39.7182 10.0689 40.4025C10.0304 40.9175 9.91673 41.4813 9.72433 42.094Z" fill="white"/>
<path d="M11.7594 31.5121C11.4009 32.0724 11.1367 32.5874 10.9758 33.05C10.7519 33.6994 10.6907 34.3557 10.7992 35.0278C10.4231 34.7974 9.91237 34.5425 9.2617 34.2545C8.61803 33.9682 7.98835 33.7238 7.38841 33.5161L4.82773 32.6363C3.47917 32.1737 2.32826 31.8926 1.375 31.7879L2.33001 29.0193C3.14509 29.5221 4.21904 30.0073 5.54136 30.4612L9.32117 31.76L9.9456 29.9515C10.208 29.1921 10.2814 28.562 10.1607 28.0522L12.5832 28.9128C12.5815 28.9198 12.6077 29.1363 12.62 29.3283C12.627 29.5186 12.585 29.8485 12.4958 30.1068C12.3646 30.4891 12.118 30.9517 11.7594 31.5121Z" fill="white"/>
<path d="M13.7033 27.2475C13.0089 26.5894 12.0504 25.8947 10.8312 25.172L8.50493 23.7912C7.28056 23.065 6.21011 22.557 5.29883 22.262L6.79606 19.7466C7.49045 20.4047 8.44896 21.0994 9.67333 21.8256L11.9996 23.2064C13.2188 23.9291 14.2875 24.4371 15.1987 24.7321L13.7033 27.2475Z" fill="white"/>
<path d="M16.322 21.3768C15.1956 21.424 13.8505 20.8724 12.6122 19.736C11.0869 18.336 10.5412 16.8173 10.7074 15.5011C10.8053 14.6021 11.1919 13.8305 11.7971 13.1741C12.439 12.4776 13.0617 12.0238 13.6704 11.816L15.5716 13.5809C14.9752 13.6245 14.2756 13.9824 13.7963 14.5026C13.331 15.0088 13.1159 15.5604 13.1561 16.1609C13.1999 16.7649 13.5584 17.3724 14.2371 17.9938C14.9035 18.6065 15.5489 18.9015 16.1558 18.8771C16.768 18.8562 17.3015 18.5978 17.7685 18.0933C18.3737 17.437 18.6798 16.7125 18.6903 15.927L20.651 17.7285C20.3344 18.5646 19.8499 19.3414 19.194 20.0519C18.4384 20.8689 17.4484 21.3297 16.322 21.3768Z" fill="white"/>
<path d="M22.4319 16.7056C22.2849 16.2902 22.0593 15.7874 21.7567 15.2044C21.4541 14.6214 21.134 14.075 20.8017 13.5583L19.3377 11.2855C19.0054 10.7705 18.6398 10.2521 18.2305 9.73011C17.8247 9.21341 17.4609 8.79969 17.1426 8.49421L22.145 5.284L23.8346 7.25132C23.5093 7.22514 22.9583 7.46603 22.173 7.96877L20.5831 8.98822L21.5503 10.4877L22.7957 9.68822C23.3012 9.36353 23.7017 9.08248 24.0043 8.83111L24.8124 10.0845C24.4591 10.2538 24.0358 10.5017 23.5303 10.8264L22.2849 11.6259L23.4096 13.3715L24.8894 12.4219C25.4281 12.0762 25.8111 11.79 26.049 11.5648C26.2851 11.3396 26.4495 11.1301 26.5423 10.9329L27.6249 13.3697L22.4319 16.7056Z" fill="white"/>
<path d="M38.9584 10.2086C38.4092 10.275 37.8879 10.2296 37.3947 10.0637C36.8997 9.89791 36.4554 9.62908 36.0601 9.25901C35.2608 8.51362 34.6853 7.23931 34.4894 5.63857C34.2918 4.02387 34.5419 2.64831 35.1383 1.73884C35.7348 0.829365 36.6216 0.269018 37.7253 0.134605C38.8289 0.00019167 39.8242 0.331861 40.6288 1.06852C41.4264 1.80692 42.0018 3.08123 42.1995 4.69593C42.3954 6.29667 42.1452 7.67223 41.5488 8.58868C41.2532 9.04255 40.8859 9.41088 40.4469 9.69018C40.0078 9.96948 39.5076 10.1405 38.9584 10.2086ZM39.8102 4.98745C39.5601 2.93983 38.8307 1.93086 37.9579 2.03734C37.0711 2.14557 36.6198 3.2907 36.8717 5.34531C37.1201 7.37896 37.8355 8.38968 38.7222 8.28145C39.5968 8.17497 40.0586 7.02111 39.8102 4.98745Z" fill="white"/>
<path d="M44.6553 9.66555C44.9946 8.77178 45.2657 7.61967 45.4616 6.21793L45.8359 3.54188C46.0336 2.13316 46.0878 0.951368 46.0073 0L51.9578 0.829174V3.43365C51.7094 3.19275 51.1287 3.00946 50.2174 2.88203L48.2794 2.61146L48.0031 4.58577L49.2729 4.76207C49.976 4.85983 50.471 4.90871 50.7684 4.90173L50.5567 6.41868C50.1789 6.31743 49.6752 6.22666 49.0403 6.13938L47.8107 5.9683L47.718 6.62815C47.5256 8.00371 47.4748 9.15058 47.5745 10.0723L44.6553 9.66555Z" fill="white"/>
<path d="M58.0938 13.3261C58.7374 12.6191 59.4143 11.6486 60.114 10.4161L61.4485 8.06478C62.1517 6.82713 62.6379 5.74833 62.9143 4.83362L65.4662 6.27551C64.8208 6.98249 64.1456 7.9548 63.4425 9.19071L62.1079 11.5421C61.4083 12.7745 60.922 13.8515 60.6457 14.768L58.0938 13.3261Z" fill="white"/>
<path d="M64.1328 17.2783C64.9147 16.7249 65.784 15.9219 66.732 14.8693L69.3661 11.9436L68.7924 11.4286C68.3254 11.0097 67.8671 10.7461 67.4071 10.6344L69.4501 8.92542L74.031 13.0329L72.5477 15.2428C72.4043 14.8117 72.0912 14.3857 71.6085 13.9528L71.0715 13.471L68.4373 16.3967C67.4893 17.4493 66.7827 18.3989 66.3157 19.2334L64.1328 17.2783Z" fill="white"/>
<path d="M68.1807 20.8429C68.6389 20.7556 69.2021 20.616 69.8598 20.4205C70.5157 20.2249 71.1384 20.0137 71.7261 19.7903L74.3865 18.8983C74.9549 18.6818 75.5356 18.4217 76.1303 18.1215C76.7145 17.8195 77.1955 17.5454 77.5698 17.2958L79.8524 20.6823C79.4816 20.9232 79.0513 21.2618 78.5476 21.6965C78.0403 22.1277 77.5716 22.5641 77.1518 23.0022L75.324 25.1302C74.3427 26.174 73.5766 27.1306 73.0099 28.0104L71.3745 25.584C71.9185 25.2349 72.5377 24.713 73.2286 24.0199L73.4769 23.7546L72.3085 22.0212L71.957 22.1347C71.0492 22.5309 70.3373 22.9115 69.8178 23.2746L68.1807 20.8429ZM73.5224 21.5289L74.3935 22.8207L75.3205 21.6983C75.5636 21.4364 76.0184 21.0157 76.683 20.4309L76.6026 20.3122C76.4189 20.3943 75.9449 20.6387 75.7648 20.7277C75.5531 20.8289 75.2086 20.986 74.9112 21.096L73.5224 21.5289Z" fill="white"/>
<path d="M74.7857 32.9855C74.7298 32.3221 74.6266 31.7548 74.4709 31.2905C74.254 30.6376 73.9024 30.0807 73.4092 29.6147C73.8465 29.5693 74.4062 29.4628 75.0988 29.297C75.7845 29.1329 76.4334 28.9461 77.0351 28.7453L79.6027 27.8917C80.9548 27.4414 82.0375 26.9665 82.8578 26.4725L83.7848 29.2481C82.8316 29.3423 81.6842 29.6094 80.3601 30.0511L76.5698 31.3114L77.175 33.1251C77.4286 33.8862 77.7539 34.4309 78.1597 34.7625L75.7127 35.5481C75.711 35.5411 75.5588 35.384 75.4311 35.2408C75.3105 35.0942 75.1425 34.8062 75.0568 34.5478C74.9274 34.1655 74.8417 33.6488 74.7857 32.9855Z" fill="white"/>
<path d="M75.9746 38.4771C76.8632 38.6028 77.7622 38.6255 78.6717 38.5452L79.4116 38.4788L82.1035 36.9409C83.515 36.1798 84.6292 35.4711 85.4547 34.8182L85.7224 37.8085C85.007 38.0023 84.1657 38.3235 83.1984 38.7581L82.3378 39.3132L82.3501 39.4494L83.3103 39.8561C84.3476 40.1267 85.2256 40.2873 85.9497 40.3519L86.2174 43.3352C85.7853 43.1065 85.2361 42.8551 84.5609 42.588C83.8858 42.314 83.2124 42.0661 82.5425 41.8444L79.6197 40.7988L78.8799 40.8651C77.9284 40.9489 77.0468 41.1234 76.2352 41.394L75.9746 38.4771Z" fill="white"/>
<path d="M5.13897 61.9472C5.50104 61.4846 6.03976 61.0604 6.55749 60.6729C7.31835 60.0986 7.96377 59.5173 7.59296 58.73C7.50376 58.5398 7.4198 58.4123 7.34809 58.3547L6.58373 58.7143C5.2824 59.3253 4.30115 59.8821 3.64874 60.3831L2.4541 57.8467C3.3409 57.6041 4.45682 57.1712 5.78964 56.5462L8.16492 55.4325C9.6639 54.7291 10.7099 54.1495 11.3028 53.6974L12.94 57.1764C13.3667 58.0824 13.5137 58.8924 13.3895 59.6186C13.2583 60.3482 12.8315 60.8806 12.0969 61.2245C11.3868 61.5562 10.7344 61.5614 10.1362 61.249C9.53447 60.9295 9.04472 60.3709 8.66516 59.5627L8.63718 59.5016L8.54447 59.5452L8.5847 59.6308C9.35606 61.2699 7.07173 61.7762 7.49676 62.6821C7.71365 63.143 8.13868 63.3734 8.76136 63.3664L6.16919 64.6128C5.72492 64.5814 5.23517 64.2462 5.00079 63.747C4.67196 63.054 4.77691 62.4116 5.13897 61.9472ZM8.42903 57.8502L8.84357 58.7318C9.1829 59.4527 9.73911 59.739 10.4125 59.4248C11.023 59.1385 11.1454 58.5171 10.8288 57.8467L10.3968 56.9285L8.42903 57.8502Z" fill="white"/>
<path d="M7.69629 67.7097C8.09334 67.5159 8.56734 67.2349 9.11131 66.8683C9.65703 66.5017 10.1643 66.1211 10.6383 65.7336L12.732 64.0211C13.206 63.6336 13.68 63.2112 14.1522 62.7451C14.6192 62.2842 14.99 61.8758 15.2559 61.5249L19.0252 66.1142L17.2621 68.0151C17.2499 67.6905 16.949 67.172 16.3561 66.4511L15.158 64.9935L13.7762 66.1246L14.7137 67.2663C15.095 67.7306 15.4221 68.0954 15.7054 68.366L14.551 69.3104C14.3411 68.9805 14.0455 68.5895 13.666 68.1269L12.7285 66.9852L11.121 68.3014L12.237 69.6595C12.6427 70.1535 12.9716 70.5009 13.2235 70.7104C13.4736 70.9181 13.7027 71.0578 13.9091 71.1259L11.609 72.4805L7.69629 67.7097Z" fill="white"/>
<path d="M15.5465 76.0118C15.1337 75.5196 14.8224 75.0622 14.6143 74.638L16.2742 72.5712C16.3616 73.0984 16.5715 73.6081 16.9021 74.1073C17.2327 74.6066 17.6052 75.0168 18.0303 75.338C18.3503 75.5807 18.6669 75.7273 18.9748 75.764C19.2809 75.8006 19.5187 75.7151 19.6867 75.4916C20.1327 74.9068 19.4173 73.9886 18.8278 72.9081C18.5095 72.3931 18.2839 71.7769 18.1859 71.2079C18.088 70.6388 18.2314 69.9772 18.6652 69.4081C19.1812 68.7308 19.8546 68.3956 20.6784 68.4061C21.4987 68.4201 22.3313 68.743 23.1621 69.3749C23.5592 69.6752 23.9212 70.0191 24.2413 70.3996C24.5562 70.7837 24.801 71.1398 24.9654 71.461L23.4017 73.5156C23.3178 73.1193 23.1481 72.7248 22.8788 72.3251C22.6094 71.9236 22.2858 71.5849 21.9115 71.3004C21.5914 71.0577 21.2801 70.9163 20.9722 70.8797C20.6661 70.8448 20.4388 70.9286 20.2813 71.1345C19.8213 71.7263 20.5525 72.6567 21.1576 73.7303C21.4725 74.2505 21.7086 74.8754 21.8118 75.448C21.915 76.0223 21.7576 76.6891 21.3168 77.2687C20.6189 78.1851 19.545 78.4383 18.4413 78.0979C17.8886 77.9355 17.3359 77.637 16.7884 77.2198C16.3739 76.9038 15.9593 76.5041 15.5465 76.0118Z" fill="white"/>
<path d="M24.0811 81.5506C24.6565 80.7861 25.2407 79.7579 25.8232 78.4644L27.4411 74.8754L26.7379 74.5594C26.166 74.3028 25.6483 74.1893 25.176 74.2242L26.6015 71.9741L32.2214 74.4966L31.4815 77.0539C31.2121 76.6873 30.7836 76.3749 30.1942 76.1095L29.5348 75.8145L27.9168 79.4035C27.3344 80.6953 26.9496 81.8142 26.7607 82.7516L24.0811 81.5506Z" fill="white"/>
<path d="M30.4248 84.2546C30.6872 83.8688 30.988 83.373 31.3133 82.7708C31.6404 82.1686 31.929 81.5803 32.1879 81.006L33.4385 78.4975C33.6869 77.9424 33.9143 77.3489 34.1224 76.717C34.3218 76.0903 34.4687 75.5579 34.5544 75.1162L38.5704 75.9017C38.4777 76.3347 38.413 76.8776 38.3657 77.5409C38.3115 78.2025 38.2905 78.8431 38.3028 79.4506L38.5179 82.2454C38.5634 83.6768 38.6981 84.8952 38.9219 85.9164L36.0447 85.3526C36.1828 84.7207 36.2511 83.9159 36.2493 82.9366L36.2371 82.5735L34.1819 82.172L34.0157 82.502C33.6536 83.4237 33.4193 84.1952 33.3091 84.8202L30.4248 84.2546ZM34.6909 80.9693L36.2231 81.2696L36.0831 79.8207C36.0692 79.4646 36.0936 78.8449 36.1496 77.9616L36.0097 77.9337C35.938 78.1204 35.7753 78.6302 35.7106 78.8187C35.6319 79.0386 35.5007 79.3948 35.3678 79.681L34.6909 80.9693Z" fill="white"/>
<path d="M43.0135 85.2743C42.3401 84.7419 41.9168 83.8132 41.8434 82.5913L41.6789 79.814C41.6422 79.1821 41.5757 78.5449 41.476 77.8973C41.3763 77.2566 41.2627 76.7242 41.1367 76.3088L44.063 76.1359C43.916 77.1065 43.8828 78.2866 43.9668 79.6796L44.1084 82.0833C44.1732 83.1761 44.6577 83.7539 45.4745 83.7067C46.2843 83.6596 46.7111 83.0207 46.6464 81.9349L46.503 79.5312C46.419 78.112 46.2406 76.9442 45.9747 76.026L48.901 75.8531C48.7453 76.7958 48.7068 77.9776 48.7908 79.3968L48.9552 82.1741C49.0252 83.3489 48.7646 84.2566 48.1751 84.913C47.5787 85.5676 46.7181 85.9254 45.5969 85.9918C44.5545 86.0494 43.6869 85.8137 43.0135 85.2743Z" fill="white"/>
<path d="M57.6457 82.6486C57.2276 82.2367 56.8656 81.6536 56.542 81.095C56.0575 80.2728 55.5537 79.5659 54.7264 79.8434C54.5253 79.9097 54.3906 79.9778 54.3259 80.0424L54.5952 80.8419C55.0517 82.2035 55.4943 83.2404 55.9175 83.9456L53.2537 84.8359C53.1137 83.9282 52.8129 82.7726 52.3441 81.3796L51.5098 78.8955C50.9833 77.328 50.5268 76.2247 50.1455 75.5841L53.7976 74.3621C54.7474 74.0444 55.5712 73.9921 56.2814 74.1981C56.9932 74.4128 57.4725 74.898 57.7296 75.6644C57.978 76.4063 57.908 77.0539 57.5285 77.6125C57.1419 78.1728 56.528 78.5935 55.6814 78.8763L55.6167 78.8973L55.6499 78.9933L55.7409 78.9636C57.4602 78.3876 57.7016 80.711 58.6514 80.3933C59.1359 80.2309 59.414 79.8364 59.4787 79.2185L60.4197 81.9329C60.3358 82.3693 59.9475 82.8162 59.4227 82.9908C58.6916 83.2387 58.0637 83.0606 57.6457 82.6486ZM53.9446 78.913L54.8698 78.604C55.6254 78.3509 55.977 77.8307 55.7409 77.129C55.5257 76.4901 54.9223 76.298 54.2174 76.5337L53.2537 76.8549L53.9446 78.913Z" fill="white"/>
<path d="M63.4143 81.0269C63.3269 80.5678 63.1869 80.0057 62.991 79.3511C62.7951 78.6948 62.5835 78.0751 62.3596 77.4851L61.4658 74.8282C61.2472 74.2609 60.9883 73.6813 60.6875 73.0861C60.3849 72.503 60.1103 72.023 59.8584 71.6494L63.2534 69.3696C63.4948 69.7397 63.8341 70.1691 64.2714 70.6719C64.7034 71.1781 65.1407 71.6459 65.5797 72.0666L67.7136 73.8908C68.7596 74.8701 69.7198 75.6364 70.6031 76.2003L68.1684 77.8342C67.8186 77.2895 67.2956 76.6733 66.6012 75.9821L66.3353 75.7342L64.5985 76.9003L64.7104 77.2511C65.1075 78.1571 65.4888 78.8693 65.8543 79.3878L63.4143 81.0269ZM64.1017 75.6923L65.3978 74.823L64.2731 73.896C64.0108 73.6534 63.5892 73.1978 63.0015 72.5345L62.8826 72.613C62.9648 72.7963 63.2114 73.2711 63.2989 73.4492C63.4003 73.6604 63.5577 74.006 63.6679 74.301L64.1017 75.6923Z" fill="white"/>
<path d="M73.108 73.9206C72.5605 73.1561 71.7367 72.3059 70.6452 71.3703L68.59 69.6107C68.109 69.1987 67.6053 68.8025 67.0683 68.4237C66.5366 68.0483 66.0748 67.7603 65.6865 67.5631L67.3622 65.6341L73.0467 67.0324L73.136 66.9294L71.588 65.6027C70.5385 64.7316 69.6657 64.1172 68.9608 63.7558L70.8709 61.5354C71.4428 62.3035 72.2666 63.1536 73.3476 64.0788L78.0824 68.1356L76.6919 69.7521L70.8324 68.3276L70.7397 68.4359L72.0498 69.5583C72.5255 69.965 73.0555 70.3753 73.6275 70.7855C74.2012 71.1957 74.6682 71.4977 75.0267 71.688L73.108 73.9206Z" fill="white"/>
<path d="M80.97 63.3089C80.2283 62.7049 79.2209 62.0835 77.9493 61.4515L74.4213 59.6989L74.0785 60.3885C73.7986 60.9488 73.6657 61.4603 73.6814 61.9316L71.4863 60.4234L74.2307 54.9211L76.7599 55.759C76.3821 56.0122 76.0532 56.4276 75.7646 57.0054L75.4428 57.6513L78.9707 59.4039C80.2406 60.0341 81.3443 60.4618 82.2748 60.6887L80.97 63.3089Z" fill="white"/>
</svg>
