<svg id="visual" viewBox="0 0 1800 1020" width="1800" height="1020" xmlns="http://www.w3.org/2000/svg" xmlns:xlink="http://www.w3.org/1999/xlink" version="1.1"><rect x="0" y="0" width="1800" height="1020" fill="#001829"></rect><g fill="none" stroke="#297EA6" stroke-width="4"><path d="M0 -246.3L55.3 -76.1L234.3 -76.1L89.5 29.1L144.8 199.3L0 94.1L-144.8 199.3L-89.5 29.1L-234.3 -76.1L-55.3 -76.1Z" transform="translate(346 453)"></path><path d="M0 -107.6L24.2 -33.2L102.3 -33.2L39.1 12.7L63.2 87L0 41.1L-63.2 87L-39.1 12.7L-102.3 -33.2L-24.2 -33.2Z" transform="translate(1572 210)"></path><path d="M0 -160.5L36 -49.6L152.6 -49.6L58.3 18.9L94.3 129.8L0 61.3L-94.3 129.8L-58.3 18.9L-152.6 -49.6L-36 -49.6Z" transform="translate(38 988)"></path><path d="M0 -134L30.1 -41.4L127.5 -41.4L48.7 15.8L78.8 108.4L0 51.2L-78.8 108.4L-48.7 15.8L-127.5 -41.4L-30.1 -41.4Z" transform="translate(1440 873)"></path><path d="M0 -148.2L33.3 -45.8L140.9 -45.8L53.8 17.5L87.1 119.9L0 56.6L-87.1 119.9L-53.8 17.5L-140.9 -45.8L-33.3 -45.8Z" transform="translate(914 632)"></path><path d="M0 -205.8L46.2 -63.6L195.7 -63.6L74.7 24.3L120.9 166.5L0 78.6L-120.9 166.5L-74.7 24.3L-195.7 -63.6L-46.2 -63.6Z" transform="translate(33 31)"></path><path d="M0 -203.9L45.8 -63L193.9 -63L74.1 24.1L119.8 164.9L0 77.9L-119.8 164.9L-74.1 24.1L-193.9 -63L-45.8 -63Z" transform="translate(915 34)"></path></g></svg>